<svg version="1.1" id="Layer_1" xmlns="http://www.w3.org/2000/svg" xmlns:xlink="http://www.w3.org/1999/xlink" x="0px" y="0px"
     width="100%" viewBox="0 0 128 128" enable-background="new 0 0 128 128" xml:space="preserve">
<path fill="#fff" opacity="1.000000" stroke="none"
      d="
M129.000000,49.000000
	C129.000000,75.999992 129.000000,102.499992 129.000000,129.000000
	C86.333344,129.000000 43.666683,129.000000 1.000019,129.000000
	C1.000012,86.333344 1.000012,43.666695 1.000006,1.000030
	C43.666645,1.000020 86.333290,1.000020 128.999969,1.000010
	C129.000000,16.833334 129.000000,32.666668 129.000000,49.000000
M8.961018,70.109116
	C8.961018,70.109116 8.979566,70.091003 8.986427,70.924416
	C9.949080,79.378502 12.553588,87.203224 18.009953,94.756920
	C22.255991,99.093513 18.746176,103.354790 17.783047,107.571884
	C16.651445,112.526627 15.935328,117.249939 19.910786,121.413971
	C24.818947,126.554962 30.345407,127.450096 36.940090,124.619133
	C43.364155,121.861427 49.233326,117.764977 57.237419,119.910172
	C68.344994,122.887138 79.348137,120.811180 89.957146,116.545876
	C99.581093,112.676620 106.577332,105.642410 113.672531,97.743355
	C116.459641,92.196014 119.246750,86.648674 122.502014,80.903610
	C122.603310,80.607117 122.704605,80.310631 122.947289,79.370705
	C122.971451,78.932190 122.995613,78.493683 123.507759,77.812492
	C123.527763,77.328033 123.547768,76.843575 123.888855,75.861694
	C123.864822,75.275169 123.840790,74.688644 123.965729,73.797958
	C124.002808,73.575012 124.028999,73.350784 124.511917,72.912766
	C124.613541,72.611794 124.715157,72.310822 124.945183,71.079872
	C124.892387,65.066185 124.839592,59.052494 124.793678,52.266994
	C123.797234,48.730846 122.800781,45.194698 121.457077,40.996716
	C118.319252,35.960072 115.181435,30.923431 111.927826,25.212658
	C107.610443,21.409477 103.293053,17.606297 98.651421,13.209849
	C86.661301,5.051624 73.180107,2.569827 59.148895,4.201657
	C47.810726,5.520287 37.321388,9.728183 28.310020,18.262560
	C24.500257,22.826357 20.690496,27.390152 16.311388,32.293362
	C15.842957,33.513969 15.374524,34.734577 14.316344,36.339821
	C12.607696,41.164627 10.899047,45.989437 9.063711,51.440998
	C9.102383,52.288822 9.141055,53.136642 8.936731,54.520130
	C8.691318,55.024696 8.445904,55.529263 8.069059,56.692619
	C8.117452,57.135685 8.165843,57.578751 8.080880,58.916962
	C8.113346,61.938084 8.145812,64.959206 8.048343,68.595428
	C8.344813,69.094208 8.641284,69.592979 8.961018,70.109116
z"/>
    <path fill="#49D261" opacity="1.000000" stroke="none"
          d="
M112.993317,97.857491
	C106.577332,105.642410 99.581093,112.676620 89.957146,116.545876
	C79.348137,120.811180 68.344994,122.887138 57.237419,119.910172
	C49.233326,117.764977 43.364155,121.861427 36.940090,124.619133
	C30.345407,127.450096 24.818947,126.554962 19.910786,121.413971
	C15.935328,117.249939 16.651445,112.526627 17.783047,107.571884
	C18.746176,103.354790 22.255991,99.093513 18.239605,94.470894
	C24.438004,97.537727 29.838152,94.654175 30.428177,88.110535
	C31.600407,89.439209 32.236168,90.974335 33.384773,91.731697
	C37.791790,94.637596 36.664749,98.141075 35.071957,102.012436
	C34.071545,104.443977 33.614601,107.099106 32.681309,110.501686
	C36.513332,108.814178 39.322166,107.577263 42.500336,106.283607
	C45.281883,105.127663 47.694096,104.028458 50.437481,103.099060
	C59.376369,107.319679 68.218521,107.293358 77.366455,105.323227
	C88.038406,103.024879 95.653732,96.268867 102.988068,89.258705
	C104.473167,91.185257 105.785843,92.901680 107.411964,94.236153
	C109.115654,95.634285 111.120239,96.665764 112.993317,97.857491
z"/>
    <path fill="#24AE44" opacity="1.000000" stroke="none"
          d="
M28.897257,17.959419
	C37.321388,9.728183 47.810726,5.520287 59.148895,4.201657
	C73.180107,2.569827 86.661301,5.051624 98.904022,13.843301
	C101.188255,18.110191 99.901764,20.026419 95.982430,20.462456
	C93.698662,20.716530 91.398186,20.820469 88.872238,20.732662
	C87.122482,20.637497 85.605705,20.801632 83.702850,20.946392
	C82.548065,20.964142 81.779373,21.001268 80.731567,20.875378
	C77.278679,19.814838 74.104897,18.917313 70.487579,18.013779
	C60.818378,17.676641 52.270565,20.224382 43.695396,23.933300
	C40.435230,23.348852 37.471767,22.431231 34.621353,22.702309
	C30.709486,23.074331 29.305944,21.348454 28.897257,17.959419
z"/>
    <path fill="#44CE5E" opacity="1.000000" stroke="none"
          d="
M113.332924,97.800423
	C111.120239,96.665764 109.115654,95.634285 107.411964,94.236153
	C105.785843,92.901680 104.473167,91.185257 103.025513,88.901443
	C105.079956,83.657188 107.131599,79.148224 109.633209,74.764160
	C114.756027,76.284485 119.376617,76.767990 123.816757,74.102119
	C123.840790,74.688644 123.864822,75.275169 123.581039,76.531815
	C123.188744,77.486351 123.104256,77.770760 123.019775,78.055168
	C122.995613,78.493683 122.971451,78.932190 122.730209,79.860870
	C122.322617,80.581497 122.162857,80.831596 122.033859,81.101341
	C119.246750,86.648674 116.459641,92.196014 113.332924,97.800423
z"/>
    <path fill="#29B548" opacity="1.000000" stroke="none"
          d="
M28.603638,18.110989
	C29.305944,21.348454 30.709486,23.074331 34.621353,22.702309
	C37.471767,22.431231 40.435230,23.348852 43.534126,24.229542
	C42.309643,25.801039 40.850449,26.821960 39.498856,27.969604
	C36.361713,30.633368 33.276527,33.358322 29.735542,36.039787
	C25.055397,34.987202 19.989067,36.460190 16.880733,31.953949
	C20.690496,27.390152 24.500257,22.826357 28.603638,18.110989
z"/>
    <path fill="#27B246" opacity="1.000000" stroke="none"
          d="
M89.105232,20.991961
	C91.398186,20.820469 93.698662,20.716530 95.982430,20.462456
	C99.901764,20.026419 101.188255,18.110191 99.066147,14.139934
	C103.293053,17.606297 107.610443,21.409477 112.005829,25.907467
	C112.724953,29.458239 111.748901,30.891567 108.671822,31.238932
	C105.738365,31.570086 102.867439,32.455067 99.668488,32.945702
	C96.595329,30.551386 93.822716,28.307945 90.870857,25.779873
	C90.103813,24.294540 89.516006,23.093840 88.967499,21.666870
	C89.006790,21.440601 89.105232,20.991961 89.105232,20.991961
z"/>
    <path fill="#2CB94B" opacity="1.000000" stroke="none"
          d="
M99.969025,33.096577
	C102.867439,32.455067 105.738365,31.570086 108.671822,31.238932
	C111.748901,30.891567 112.724953,29.458239 112.063721,26.244534
	C115.181435,30.923431 118.319252,35.960072 121.318085,41.602539
	C117.619019,46.180302 112.788361,45.629665 108.016998,45.607594
	C105.227394,41.268250 102.598206,37.182415 99.969025,33.096577
z"/>
    <path fill="#45CE5E" opacity="1.000000" stroke="none"
          d="
M30.127254,87.959778
	C29.838152,94.654175 24.438004,97.537727 18.151031,94.093773
	C12.553588,87.203224 9.949080,79.378502 9.319124,70.487427
	C10.101188,70.033524 10.550553,70.016609 10.999960,69.999847
	C11.000000,70.000000 11.000442,70.000000 11.007239,70.415359
	C11.129764,71.983215 11.159803,73.151962 11.374711,74.285667
	C13.162867,83.718727 16.915159,85.151604 24.938814,79.499397
	C25.208029,79.309753 25.516060,79.175217 25.887630,79.372330
	C27.355261,82.473038 28.741259,85.216408 30.127254,87.959778
z"/>
    <path fill="#3DC758" opacity="1.000000" stroke="none"
          d="
M123.891235,73.950043
	C119.376617,76.767990 114.756027,76.284485 109.571960,74.505470
	C109.210495,73.825287 109.360245,73.528709 109.834869,73.187653
	C110.178726,72.101624 110.197708,71.060089 110.297485,69.630760
	C110.622108,65.148010 110.865944,61.053043 111.398827,57.199322
	C113.617813,61.524380 117.399658,60.840790 120.556587,60.221581
	C121.698433,59.997612 122.273239,57.050987 123.179482,55.386318
	C123.630569,54.557713 124.245811,53.818466 124.786804,53.038803
	C124.839592,59.052494 124.892387,65.066185 124.734383,71.718323
	C124.331535,72.592804 124.171776,72.848976 124.044312,73.125282
	C124.028999,73.350784 124.002808,73.575012 123.891235,73.950043
z"/>
    <path fill="#34C051" opacity="1.000000" stroke="none"
          d="
M124.790237,52.652897
	C124.245811,53.818466 123.630569,54.557713 123.179482,55.386318
	C122.273239,57.050987 121.698433,59.997612 120.556587,60.221581
	C117.399658,60.840790 113.617813,61.524380 111.190903,56.936073
	C110.119240,53.651344 109.544540,50.871109 108.858612,47.666603
	C108.663643,46.962181 108.579903,46.682022 108.331207,46.316936
	C108.166245,46.232010 108.177414,45.861099 108.177414,45.861099
	C112.788361,45.629665 117.619019,46.180302 121.491714,41.933456
	C122.800781,45.194698 123.797234,48.730846 124.790237,52.652897
z"/>
    <path fill="#32BF50" opacity="1.000000" stroke="none"
          d="
M8.200489,56.033829
	C8.445904,55.529263 8.691318,55.024696 9.294153,54.089867
	C9.497850,52.711147 9.344125,51.762695 9.190399,50.814243
	C10.899047,45.989437 12.607696,41.164627 14.737661,36.431900
	C15.982999,39.071442 12.079304,42.697754 16.401829,44.201805
	C18.609184,44.969872 21.536505,44.529545 23.868664,43.787560
	C25.532974,43.258045 26.748075,41.316624 28.077053,40.373196
	C26.348806,45.169537 24.707134,49.597927 22.749012,54.186432
	C19.622398,55.063446 16.844742,56.006077 13.990532,56.417107
	C12.117753,56.686798 10.134350,56.188297 8.200489,56.033829
z"/>
    <path fill="#3BC556" opacity="1.000000" stroke="none"
          d="
M8.134774,56.363224
	C10.134350,56.188297 12.117753,56.686798 13.990532,56.417107
	C16.844742,56.006077 19.622398,55.063446 22.714901,54.633198
	C22.932461,58.556458 22.867683,62.193069 22.509275,66.104919
	C19.671169,71.285851 15.053126,69.767113 11.000442,70.000000
	C11.000442,70.000000 11.000000,70.000000 10.952714,69.590645
	C10.008363,65.461464 9.111299,61.741642 8.214234,58.021816
	C8.165843,57.578751 8.117452,57.135685 8.134774,56.363224
z"/>
    <path fill="#2FBA4C" opacity="1.000000" stroke="none"
          d="
M28.163631,40.005241
	C26.748075,41.316624 25.532974,43.258045 23.868664,43.787560
	C21.536505,44.529545 18.609184,44.969872 16.401829,44.201805
	C12.079304,42.697754 15.982999,39.071442 15.032536,36.239578
	C15.374524,34.734577 15.842957,33.513969 16.596062,32.123653
	C19.989067,36.460190 25.055397,34.987202 29.591160,36.335907
	C29.308887,37.768887 28.736259,38.887066 28.163631,40.005241
z"/>
    <path fill="#41CB5A" opacity="1.000000" stroke="none"
          d="
M8.147557,58.469391
	C9.111299,61.741642 10.008363,65.461464 10.952674,69.590492
	C10.550553,70.016609 10.101188,70.033524 9.315693,70.070724
	C8.979566,70.091003 8.961018,70.109116 8.901041,69.821747
	C8.620135,69.016365 8.399206,68.498344 8.178278,67.980324
	C8.145812,64.959206 8.113346,61.938084 8.147557,58.469391
z"/>
    <path fill="#3BC556" opacity="1.000000" stroke="none"
          d="
M9.127054,51.127621
	C9.344125,51.762695 9.497850,52.711147 9.415651,53.822033
	C9.141055,53.136642 9.102383,52.288822 9.127054,51.127621
z"/>
    <path fill="#32BF50" opacity="1.000000" stroke="none"
          d="
M8.113310,68.287872
	C8.399206,68.498344 8.620135,69.016365 8.889410,69.813065
	C8.641284,69.592979 8.344813,69.094208 8.113310,68.287872
z"/>
    <path fill="#3DC758" opacity="1.000000" stroke="none"
          d="
M122.267944,81.002472
	C122.162857,80.831596 122.322617,80.581497 122.659515,80.182587
	C122.704605,80.310631 122.603310,80.607117 122.267944,81.002472
z"/>
    <path fill="#3DC758" opacity="1.000000" stroke="none"
          d="
M123.263763,77.933830
	C123.104256,77.770760 123.188744,77.486351 123.420502,76.780533
	C123.547768,76.843575 123.527763,77.328033 123.263763,77.933830
z"/>
    <path fill="#34C051" opacity="1.000000" stroke="none"
          d="
M124.278114,73.019028
	C124.171776,72.848976 124.331535,72.592804 124.670181,72.183311
	C124.715157,72.310822 124.613541,72.611794 124.278114,73.019028
z"/>
    <path fill="#fff" opacity="1.000000" stroke="none"
          d="
M108.969841,48.090870
	C109.544540,50.871109 110.119240,53.651344 110.901855,56.694832
	C110.865944,61.053043 110.622108,65.148010 110.224152,69.901939
	C109.883362,71.451317 109.696678,72.341721 109.509995,73.232132
	C109.360245,73.528709 109.210495,73.825287 109.121994,74.380554
	C107.131599,79.148224 105.079956,83.657188 102.990875,88.523422
	C95.653732,96.268867 88.038406,103.024879 77.366455,105.323227
	C68.218521,107.293358 59.376369,107.319679 50.521446,102.780151
	C56.063995,95.787109 61.915974,89.336716 67.619606,82.757721
	C70.915100,78.956451 73.971306,74.947723 77.350540,70.956032
	C77.837555,70.698730 77.994652,70.446419 78.334671,69.963791
	C80.460701,67.549828 82.289230,65.294838 84.422821,62.886482
	C86.090240,61.367779 87.833282,60.209690 88.718124,58.584385
	C89.811440,56.576138 90.972015,54.034332 90.593811,52.004337
	C90.358765,50.742744 87.422905,49.547432 85.524742,49.144508
	C83.214783,48.654179 80.721397,49.027977 77.697807,49.027977
	C80.243134,44.447205 82.362213,40.633526 84.758514,36.590996
	C87.040527,32.929596 89.045311,29.497049 91.050102,26.064503
	C93.822716,28.307945 96.595329,30.551386 99.668488,32.945702
	C102.598206,37.182415 105.227394,41.268250 108.016998,45.607594
	C108.177414,45.861099 108.166245,46.232010 108.159645,46.531086
	C108.425308,47.250401 108.697578,47.670635 108.969841,48.090870
z"/>
    <path fill="#fff" opacity="1.000000" stroke="none"
          d="
M28.077055,40.373196
	C28.736259,38.887066 29.308887,37.768887 30.025898,36.354591
	C33.276527,33.358322 36.361713,30.633368 39.498856,27.969604
	C40.850449,26.821960 42.309643,25.801039 43.881226,24.426308
	C52.270565,20.224382 60.818378,17.676641 70.323158,18.348324
	C68.054138,19.431404 65.506012,20.173931 62.606453,20.980858
	C61.161263,22.134037 59.706486,23.038839 59.040527,24.345633
	C56.930199,28.486670 55.114510,32.777859 53.016953,37.331718
	C50.199692,43.418377 47.550373,49.184307 44.603195,55.134743
	C43.368206,57.221939 42.426636,59.122463 41.494789,61.027748
	C38.980530,66.168480 40.507893,68.578568 46.164658,69.063263
	C48.776997,69.287086 51.322086,70.295776 53.596348,71.132065
	C48.891953,80.758331 44.524220,90.217896 40.065094,99.634178
	C38.656853,102.607933 38.686775,104.951942 42.131001,106.340340
	C39.322166,107.577263 36.513332,108.814178 32.681309,110.501686
	C33.614601,107.099106 34.071545,104.443977 35.071957,102.012436
	C36.664749,98.141075 37.791790,94.637596 33.384773,91.731697
	C32.236168,90.974335 31.600407,89.439209 30.428177,88.110535
	C28.741259,85.216408 27.355261,82.473038 25.828705,79.009758
	C25.055489,76.190186 24.422836,74.090515 23.801044,71.743073
	C23.636860,71.188499 23.376711,70.997803 23.012899,70.558105
	C22.930527,68.738564 22.866716,67.284119 22.802906,65.829681
	C22.867683,62.193069 22.932461,58.556458 23.031351,54.473083
	C24.707134,49.597927 26.348806,45.169537 28.077055,40.373196
z"/>
    <path fill="#16D92D" opacity="1.000000" stroke="none"
          d="
M42.500336,106.283607
	C38.686775,104.951942 38.656853,102.607933 40.065094,99.634178
	C44.524220,90.217896 48.891953,80.758331 53.888138,71.373703
	C55.572174,72.048401 56.663094,72.664909 57.650993,73.640999
	C54.149799,81.211784 50.751625,88.422989 47.353451,95.634193
	C47.612419,95.800690 47.871387,95.967194 48.130352,96.133698
	C48.760296,95.467888 49.390240,94.802086 50.335838,94.018784
	C50.961418,93.597359 51.271343,93.293434 51.719185,92.984055
	C52.032703,92.870689 52.108669,92.714417 52.376789,92.313156
	C59.047195,85.053680 65.425812,77.990852 72.124252,71.035400
	C74.007797,71.105972 75.571495,71.069168 77.135201,71.032364
	C73.971306,74.947723 70.915100,78.956451 67.619606,82.757721
	C61.915974,89.336716 56.063995,95.787109 50.190277,102.610344
	C47.694096,104.028458 45.281883,105.127663 42.500336,106.283607
z"/>
    <path fill="#FBC419" opacity="1.000000" stroke="none"
          d="
M81.010674,21.038395
	C81.779373,21.001268 82.548065,20.964142 83.590088,21.283779
	C77.949623,30.787659 72.035835,39.934776 65.817444,48.911987
	C62.645897,46.099472 59.778946,43.456863 56.937748,40.520042
	C57.220898,39.486710 57.478294,38.747589 57.924473,37.701153
	C59.785477,33.671532 61.457699,29.949223 63.428932,25.994278
	C69.488853,24.187225 75.249763,22.612810 81.010674,21.038395
z"/>
    <path fill="#F8DD37" opacity="1.000000" stroke="none"
          d="
M66.122040,49.081890
	C72.035835,39.934776 77.949623,30.787659 83.976173,21.303154
	C85.605705,20.801632 87.122482,20.637497 88.872238,20.732662
	C89.105232,20.991961 89.006790,21.440601 88.636032,21.762075
	C85.227058,27.057646 82.188850,32.031738 78.928932,37.271103
	C75.663368,42.526234 72.619530,47.516090 69.174568,53.163506
	C75.339279,53.529446 80.391838,53.829372 85.444405,54.129295
	C85.621330,54.479546 85.798264,54.829796 85.975189,55.180046
	C85.040329,55.829750 84.105461,56.479454 82.694069,57.099625
	C75.873230,57.070091 69.528923,57.070091 62.257866,57.070091
	C63.992958,53.483231 65.057503,51.282562 66.122040,49.081890
z"/>
    <path fill="#21B53A" opacity="1.000000" stroke="none"
          d="
M80.731567,20.875380
	C75.249763,22.612810 69.488853,24.187225 63.311054,25.677349
	C62.915401,24.034193 62.936642,22.475328 62.957882,20.916462
	C65.506012,20.173931 68.054138,19.431404 70.766693,18.354332
	C74.104897,18.917313 77.278679,19.814838 80.731567,20.875380
z"/>
    <path fill="#1CC031" opacity="1.000000" stroke="none"
          d="
M79.150650,37.005836
	C82.188850,32.031738 85.227058,27.057646 88.596733,21.988344
	C89.516006,23.093840 90.103813,24.294540 90.870857,25.779873
	C89.045311,29.497049 87.040527,32.929596 84.511673,36.453903
	C82.375282,36.699055 80.762962,36.852444 79.150650,37.005836
z"/>
    <path fill="#41CB5A" opacity="1.000000" stroke="none"
          d="
M22.509275,66.104919
	C22.866716,67.284119 22.930527,68.738564 23.118576,70.749863
	C23.403517,71.552170 23.585972,71.780212 23.790182,71.990852
	C24.422836,74.090515 25.055489,76.190186 25.747070,78.652420
	C25.516060,79.175217 25.208029,79.309753 24.938814,79.499397
	C16.915159,85.151604 13.162867,83.718727 11.374711,74.285667
	C11.159803,73.151962 11.129764,71.983215 11.007239,70.415359
	C15.053126,69.767113 19.671169,71.285851 22.509275,66.104919
z"/>
    <path fill="#44CE5E" opacity="1.000000" stroke="none"
          d="
M109.834869,73.187653
	C109.696678,72.341721 109.883362,71.451317 110.143364,70.289726
	C110.197708,71.060089 110.178726,72.101624 109.834869,73.187653
z"/>
    <path fill="#2CB94B" opacity="1.000000" stroke="none"
          d="
M108.858612,47.666603
	C108.697578,47.670635 108.425308,47.250401 108.324600,46.616013
	C108.579903,46.682022 108.663643,46.962181 108.858612,47.666603
z"/>
    <path fill="#1CCD2C" opacity="1.000000" stroke="none"
          d="
M78.928925,37.271103
	C80.762962,36.852444 82.375282,36.699055 84.234451,36.682758
	C82.362213,40.633526 80.243134,44.447205 77.697807,49.027977
	C80.721397,49.027977 83.214783,48.654179 85.524742,49.144508
	C87.422905,49.547432 90.358765,50.742744 90.593811,52.004337
	C90.972015,54.034332 89.811440,56.576138 88.718124,58.584385
	C87.833282,60.209690 86.090240,61.367779 84.084000,62.975761
	C81.639137,65.519867 79.838158,67.821320 78.037178,70.122772
	C77.994652,70.446419 77.837555,70.698730 77.350540,70.956032
	C75.571495,71.069168 74.007797,71.105972 72.263474,70.724731
	C75.778770,65.914177 79.474686,61.521667 83.170601,57.129158
	C84.105461,56.479454 85.040329,55.829750 85.975189,55.180046
	C85.798264,54.829796 85.621330,54.479546 85.444405,54.129295
	C80.391838,53.829372 75.339279,53.529446 69.174568,53.163506
	C72.619530,47.516090 75.663368,42.526234 78.928925,37.271103
z"/>
    <path fill="#16D92D" opacity="1.000000" stroke="none"
          d="
M78.334671,69.963791
	C79.838158,67.821320 81.639137,65.519867 83.778938,63.129135
	C82.289230,65.294838 80.460701,67.549828 78.334671,69.963791
z"/>
    <path fill="#18D22D" opacity="1.000000" stroke="none"
          d="
M57.754017,73.281418
	C56.663094,72.664909 55.572174,72.048401 54.189461,71.190254
	C51.322086,70.295776 48.776997,69.287086 46.164658,69.063263
	C40.507893,68.578568 38.980530,66.168480 41.494789,61.027748
	C42.426636,59.122463 43.368206,57.221939 44.999477,55.304981
	C46.771847,55.689857 47.850079,56.088997 48.869465,56.844810
	C48.180679,58.750355 47.550739,60.299221 46.652336,62.116966
	C47.212708,63.128162 47.981903,64.420593 48.880634,64.518013
	C52.869236,64.950386 56.894985,65.040062 61.638721,65.292633
	C60.133369,68.388344 58.943695,70.834877 57.754017,73.281418
z"/>
    <path fill="#1BCB2D" opacity="1.000000" stroke="none"
          d="
M48.928307,56.488136
	C47.850079,56.088997 46.771847,55.689857 45.297333,55.120480
	C47.550373,49.184307 50.199692,43.418377 53.340935,37.409279
	C55.133804,37.446896 56.434746,37.727680 57.735691,38.008469
	C57.478294,38.747589 57.220898,39.486710 56.675625,40.756760
	C53.901268,46.354504 51.414787,51.421322 48.928307,56.488136
z"/>
    <path fill="#1CC131" opacity="1.000000" stroke="none"
          d="
M57.924473,37.701149
	C56.434746,37.727680 55.133804,37.446896 53.508881,37.088547
	C55.114510,32.777859 56.930199,28.486670 59.040527,24.345633
	C59.706486,23.038839 61.161263,22.134037 62.606453,20.980858
	C62.936642,22.475328 62.915401,24.034193 63.012039,25.909988
	C61.457699,29.949223 59.785477,33.671532 57.924473,37.701149
z"/>
    <path fill="#3BC556" opacity="1.000000" stroke="none"
          d="
M23.801044,71.743073
	C23.585972,71.780212 23.403517,71.552170 23.137138,71.114975
	C23.376711,70.997803 23.636860,71.188499 23.801044,71.743073
z"/>
    <path fill="#FBC01A" opacity="1.000000" stroke="none"
          d="
M48.869461,56.844814
	C51.414787,51.421322 53.901268,46.354504 56.649872,41.050972
	C59.778946,43.456863 62.645897,46.099472 65.817444,48.911987
	C65.057503,51.282562 63.992958,53.483231 62.257866,57.070091
	C69.528923,57.070091 75.873230,57.070091 82.694069,57.099625
	C79.474686,61.521667 75.778770,65.914177 71.943634,70.617355
	C65.425812,77.990852 59.047195,85.053680 52.388466,91.907021
	C53.735260,88.302994 55.225636,84.834373 57.018589,81.529922
	C60.359581,75.372406 63.876629,69.310410 67.276733,63.286022
	C66.294365,62.616516 66.032402,62.283390 65.761932,62.276321
	C59.482113,62.112183 53.201370,61.983406 46.920799,61.848087
	C47.550739,60.299221 48.180679,58.750355 48.869461,56.844814
z"/>
    <path fill="#F19E16" opacity="1.000000" stroke="none"
          d="
M46.652340,62.116966
	C53.201370,61.983406 59.482113,62.112183 65.761932,62.276321
	C66.032402,62.283390 66.294365,62.616516 67.276733,63.286022
	C63.876629,69.310410 60.359581,75.372406 57.018589,81.529922
	C55.225636,84.834373 53.735260,88.302994 52.096672,92.103668
	C52.108669,92.714417 52.032703,92.870689 51.447586,93.159142
	C50.698776,93.605217 50.359482,93.870750 50.020187,94.136284
	C49.390240,94.802086 48.760296,95.467888 48.130352,96.133698
	C47.871387,95.967194 47.612419,95.800690 47.353451,95.634193
	C50.751625,88.422989 54.149799,81.211784 57.650993,73.640999
	C58.943695,70.834877 60.133369,68.388344 61.638721,65.292633
	C56.894985,65.040062 52.869236,64.950386 48.880634,64.518013
	C47.981903,64.420593 47.212708,63.128162 46.652340,62.116966
z"/>
    <path fill="#FBC01A" opacity="1.000000" stroke="none"
          d="
M50.335838,94.018784
	C50.359482,93.870750 50.698776,93.605217 51.309669,93.164597
	C51.271343,93.293434 50.961418,93.597359 50.335838,94.018784
z"/>
</svg>
